<?xml version="1.0" standalone="no"?><svg xmlns:xlink="http://www.w3.org/1999/xlink" xmlns="http://www.w3.org/2000/svg" viewBox="0 0 1000 487.1823796497364" preserveAspectRatio="xMaxYMax slice"><g transform="scale(0.7050396232268255)"><rect x="0" y="0" width="1418.3684210526317" height="691.0000000000001" fill="#ffffff"/><circle cx="18.185000000000002" cy="18.185000000000002" r="3.635" fill="#665b5d"/><circle cx="54.555" cy="18.185000000000002" r="3.635" fill="#685d60"/><circle cx="90.915" cy="18.185000000000002" r="3.635" fill="#b6b1b2"/><circle cx="127.28500000000001" cy="18.185000000000002" r="3.635" fill="#cac8c6"/><circle cx="163.655" cy="18.185000000000002" r="3.635" fill="#433639"/><circle cx="200.02499999999998" cy="18.185000000000002" r="3.635" fill="#d8d6d5"/><circle cx="236.39499999999998" cy="18.185000000000002" r="3.635" fill="#524548"/><circle cx="272.765" cy="18.185000000000002" r="3.635" fill="#e0dede"/><circle cx="309.125" cy="18.185000000000002" r="3.635" fill="#a49e9f"/><circle cx="345.495" cy="18.185000000000002" r="3.635" fill="#847f7a"/><circle cx="381.865" cy="18.185000000000002" r="3.635" fill="#fdfdfd"/><circle cx="418.235" cy="18.185000000000002" r="3.635" fill="#e7e7e6"/><circle cx="454.605" cy="18.185000000000002" r="3.635" fill="#a29e9a"/><circle cx="490.97499999999997" cy="18.185000000000002" r="3.635" fill="#b8b5b2"/><circle cx="527.345" cy="18.185000000000002" r="3.635" fill="#a7a3a0"/><circle cx="563.705" cy="18.185000000000002" r="3.635" fill="#4b3e41"/><circle cx="600.075" cy="18.185000000000002" r="3.635" fill="#c2bebf"/><circle cx="636.4449999999999" cy="18.185000000000002" r="3.635" fill="#827d78"/><circle cx="672.8149999999999" cy="18.185000000000002" r="3.635" fill="#bcb7b8"/><circle cx="709.185" cy="18.185000000000002" r="3.635" fill="#f1f1f0"/><circle cx="745.555" cy="18.185000000000002" r="3.635" fill="#96928e"/><circle cx="781.915" cy="18.185000000000002" r="3.635" fill="#c9c7c4"/><circle cx="818.285" cy="18.185000000000002" r="3.635" fill="#e5e4e3"/><circle cx="854.655" cy="18.185000000000002" r="3.635" fill="#cdcacb"/><circle cx="891.025" cy="18.185000000000002" r="3.635" fill="#b6b3b0"/><circle cx="927.395" cy="18.185000000000002" r="3.635" fill="#7b7174"/><circle cx="963.765" cy="18.185000000000002" r="3.635" fill="#786f71"/><circle cx="1000.125" cy="18.185000000000002" r="3.635" fill="#d1cece"/><circle cx="1036.495" cy="18.185000000000002" r="3.635" fill="#a39d9e"/><circle cx="1072.865" cy="18.185000000000002" r="3.635" fill="#e9e8e7"/><circle cx="1109.235" cy="18.185000000000002" r="3.635" fill="#999293"/><circle cx="1145.605" cy="18.185000000000002" r="3.635" fill="#291a1d"/><circle cx="1181.975" cy="18.185000000000002" r="3.635" fill="#514548"/><circle cx="1218.345" cy="18.185000000000002" r="3.635" fill="#524649"/><circle cx="1254.705" cy="18.185000000000002" r="3.635" fill="#999590"/><circle cx="1291.075" cy="18.185000000000002" r="3.635" fill="#201115"/><circle cx="1327.445" cy="18.185000000000002" r="3.635" fill="#dedcdc"/><circle cx="1363.815" cy="18.185000000000002" r="3.635" fill="#cdc9ca"/><circle cx="1400.185" cy="18.185000000000002" r="3.635" fill="#c5c3c0"/><circle cx="18.185000000000002" cy="54.555" r="3.635" fill="#918c88"/><circle cx="54.555" cy="54.555" r="3.635" fill="#35272a"/><circle cx="90.915" cy="54.555" r="3.635" fill="#b0adaa"/><circle cx="127.28500000000001" cy="54.555" r="3.635" fill="#989490"/><circle cx="163.655" cy="54.555" r="3.635" fill="#b1abad"/><circle cx="200.02499999999998" cy="54.555" r="3.635" fill="#b3aeaf"/><circle cx="236.39499999999998" cy="54.555" r="3.635" fill="#5f5356"/><circle cx="272.765" cy="54.555" r="3.635" fill="#d8d7d5"/><circle cx="309.125" cy="54.555" r="3.635" fill="#6c6164"/><circle cx="345.495" cy="54.555" r="3.635" fill="#bbb6b7"/><circle cx="381.865" cy="54.555" r="3.635" fill="#bbb9b6"/><circle cx="418.235" cy="54.555" r="3.635" fill="#807779"/><circle cx="454.605" cy="54.555" r="3.635" fill="#d0cecc"/><circle cx="490.97499999999997" cy="54.555" r="3.635" fill="#d1cecf"/><circle cx="527.345" cy="54.555" r="3.635" fill="#95918d"/><circle cx="563.705" cy="54.555" r="3.635" fill="#bfbdba"/><circle cx="600.075" cy="54.555" r="3.635" fill="#b1aeab"/><circle cx="636.4449999999999" cy="54.555" r="3.635" fill="#d2d0ce"/><circle cx="672.8149999999999" cy="54.555" r="3.635" fill="#aba5a7"/><circle cx="709.185" cy="54.555" r="3.635" fill="#c1bdbe"/><circle cx="745.555" cy="54.555" r="3.635" fill="#211115"/><circle cx="781.915" cy="54.555" r="3.635" fill="#aaa4a5"/><circle cx="818.285" cy="54.555" r="3.635" fill="#a09d99"/><circle cx="854.655" cy="54.555" r="3.635" fill="#9d9697"/><circle cx="891.025" cy="54.555" r="3.635" fill="#f3f3f3"/><circle cx="927.395" cy="54.555" r="3.635" fill="#85807c"/><circle cx="963.765" cy="54.555" r="3.635" fill="#bbb8b6"/><circle cx="1000.125" cy="54.555" r="3.635" fill="#e4e2e3"/><circle cx="1036.495" cy="54.555" r="3.635" fill="#211115"/><circle cx="1072.865" cy="54.555" r="3.635" fill="#dcd9da"/><circle cx="1109.235" cy="54.555" r="3.635" fill="#aca9a6"/><circle cx="1145.605" cy="54.555" r="3.635" fill="#a6a29f"/><circle cx="1181.975" cy="54.555" r="3.635" fill="#edecec"/><circle cx="1218.345" cy="54.555" r="3.635" fill="#8d8587"/><circle cx="1254.705" cy="54.555" r="3.635" fill="#f1f0ef"/><circle cx="1291.075" cy="54.555" r="3.635" fill="#8d8587"/><circle cx="1327.445" cy="54.555" r="3.635" fill="#53474a"/><circle cx="1363.815" cy="54.555" r="3.635" fill="#f3f3f2"/><circle cx="1400.185" cy="54.555" r="3.635" fill="#483b3e"/><circle cx="18.185000000000002" cy="90.915" r="3.635" fill="#c4c0c1"/><circle cx="54.555" cy="90.915" r="3.635" fill="#8a8581"/><circle cx="90.915" cy="90.915" r="3.635" fill="#f2f1f1"/><circle cx="127.28500000000001" cy="90.915" r="3.635" fill="#d0cdcd"/><circle cx="163.655" cy="90.915" r="3.635" fill="#71676a"/><circle cx="200.02499999999998" cy="90.915" r="3.635" fill="#a19a9c"/><circle cx="236.39499999999998" cy="90.915" r="3.635" fill="#e7e6e5"/><circle cx="272.765" cy="90.915" r="3.635" fill="#c7c5c3"/><circle cx="309.125" cy="90.915" r="3.635" fill="#3a2c2f"/><circle cx="345.495" cy="90.915" r="3.635" fill="#514548"/><circle cx="381.865" cy="90.915" r="3.635" fill="#cac7c8"/><circle cx="418.235" cy="90.915" r="3.635" fill="#d8d6d5"/><circle cx="454.605" cy="90.915" r="3.635" fill="#e0dedd"/><circle cx="490.97499999999997" cy="90.915" r="3.635" fill="#423438"/><circle cx="527.345" cy="90.915" r="3.635" fill="#837a7c"/><circle cx="563.705" cy="90.915" r="3.635" fill="#d4d2d0"/><circle cx="600.075" cy="90.915" r="3.635" fill="#aea8a9"/><circle cx="636.4449999999999" cy="90.915" r="3.635" fill="#dedcdc"/><circle cx="672.8149999999999" cy="90.915" r="3.635" fill="#e7e6e5"/><circle cx="709.185" cy="90.915" r="3.635" fill="#a8a5a1"/><circle cx="745.555" cy="90.915" r="3.635" fill="#3f3235"/><circle cx="781.915" cy="90.915" r="3.635" fill="#f0f0ef"/><circle cx="818.285" cy="90.915" r="3.635" fill="#594d50"/><circle cx="854.655" cy="90.915" r="3.635" fill="#cac8c6"/><circle cx="891.025" cy="90.915" r="3.635" fill="#e8e7e6"/><circle cx="927.395" cy="90.915" r="3.635" fill="#b5b2af"/><circle cx="963.765" cy="90.915" r="3.635" fill="#bab7b4"/><circle cx="1000.125" cy="90.915" r="3.635" fill="#87827d"/><circle cx="1036.495" cy="90.915" r="3.635" fill="#d9d7d6"/><circle cx="1072.865" cy="90.915" r="3.635" fill="#342629"/><circle cx="1109.235" cy="90.915" r="3.635" fill="#cbc7c8"/><circle cx="1145.605" cy="90.915" r="3.635" fill="#a8a2a4"/><circle cx="1181.975" cy="90.915" r="3.635" fill="#999591"/><circle cx="1218.345" cy="90.915" r="3.635" fill="#2c1d21"/><circle cx="1254.705" cy="90.915" r="3.635" fill="#b0aaab"/><circle cx="1291.075" cy="90.915" r="3.635" fill="#b4b1ae"/><circle cx="1327.445" cy="90.915" r="3.635" fill="#f9f9f8"/><circle cx="1363.815" cy="90.915" r="3.635" fill="#403235"/><circle cx="1400.185" cy="90.915" r="3.635" fill="#2e1f22"/><circle cx="18.185000000000002" cy="127.28500000000001" r="3.635" fill="#35272b"/><circle cx="54.555" cy="127.28500000000001" r="3.635" fill="#6e6467"/><circle cx="90.915" cy="127.28500000000001" r="3.635" fill="#e3e2e1"/><circle cx="127.28500000000001" cy="127.28500000000001" r="3.635" fill="#87827d"/><circle cx="163.655" cy="127.28500000000001" r="3.635" fill="#a4a19d"/><circle cx="200.02499999999998" cy="127.28500000000001" r="3.635" fill="#eae9e8"/><circle cx="236.39499999999998" cy="127.28500000000001" r="3.635" fill="#d8d6d4"/><circle cx="272.765" cy="127.28500000000001" r="3.635" fill="#4f4245"/><circle cx="309.125" cy="127.28500000000001" r="3.635" fill="#9a9692"/><circle cx="345.495" cy="127.28500000000001" r="3.635" fill="#685d60"/><circle cx="381.865" cy="127.28500000000001" r="3.635" fill="#dfdedd"/><circle cx="418.235" cy="127.28500000000001" r="3.635" fill="#f4f3f3"/><circle cx="454.605" cy="127.28500000000001" r="3.635" fill="#26161a"/><circle cx="490.97499999999997" cy="127.28500000000001" r="3.635" fill="#88837f"/><circle cx="527.345" cy="127.28500000000001" r="3.635" fill="#eeeded"/><circle cx="563.705" cy="127.28500000000001" r="3.635" fill="#999591"/><circle cx="600.075" cy="127.28500000000001" r="3.635" fill="#9d9698"/><circle cx="636.4449999999999" cy="127.28500000000001" r="3.635" fill="#80777a"/><circle cx="672.8149999999999" cy="127.28500000000001" r="3.635" fill="#514447"/><circle cx="709.185" cy="127.28500000000001" r="3.635" fill="#b7b2b3"/><circle cx="745.555" cy="127.28500000000001" r="3.635" fill="#d6d4d3"/><circle cx="781.915" cy="127.28500000000001" r="3.635" fill="#5b4f52"/><circle cx="818.285" cy="127.28500000000001" r="3.635" fill="#d7d4d5"/><circle cx="854.655" cy="127.28500000000001" r="3.635" fill="#2e1f23"/><circle cx="891.025" cy="127.28500000000001" r="3.635" fill="#e2e1e0"/><circle cx="927.395" cy="127.28500000000001" r="3.635" fill="#f0efef"/><circle cx="963.765" cy="127.28500000000001" r="3.635" fill="#dcdbd9"/><circle cx="1000.125" cy="127.28500000000001" r="3.635" fill="#999294"/><circle cx="1036.495" cy="127.28500000000001" r="3.635" fill="#625759"/><circle cx="1072.865" cy="127.28500000000001" r="3.635" fill="#a5a29e"/><circle cx="1109.235" cy="127.28500000000001" r="3.635" fill="#928a8c"/><circle cx="1145.605" cy="127.28500000000001" r="3.635" fill="#605558"/><circle cx="1181.975" cy="127.28500000000001" r="3.635" fill="#63585b"/><circle cx="1218.345" cy="127.28500000000001" r="3.635" fill="#c2c0be"/><circle cx="1254.705" cy="127.28500000000001" r="3.635" fill="#e5e4e3"/><circle cx="1291.075" cy="127.28500000000001" r="3.635" fill="#d5d3d2"/><circle cx="1327.445" cy="127.28500000000001" r="3.635" fill="#948c8e"/><circle cx="1363.815" cy="127.28500000000001" r="3.635" fill="#dad9d7"/><circle cx="1400.185" cy="127.28500000000001" r="3.635" fill="#d3d0d1"/><circle cx="18.185000000000002" cy="163.655" r="3.635" fill="#d0cecc"/><circle cx="54.555" cy="163.655" r="3.635" fill="#63585b"/><circle cx="90.915" cy="163.655" r="3.635" fill="#e8e6e6"/><circle cx="127.28500000000001" cy="163.655" r="3.635" fill="#fbfbfb"/><circle cx="163.655" cy="163.655" r="3.635" fill="#e1e0df"/><circle cx="200.02499999999998" cy="163.655" r="3.635" fill="#231317"/><circle cx="236.39499999999998" cy="163.655" r="3.635" fill="#87827d"/><circle cx="272.765" cy="163.655" r="3.635" fill="#b1aeab"/><circle cx="309.125" cy="163.655" r="3.635" fill="#938e8a"/><circle cx="345.495" cy="163.655" r="3.635" fill="#a7a1a3"/><circle cx="381.865" cy="163.655" r="3.635" fill="#e0dfde"/><circle cx="418.235" cy="163.655" r="3.635" fill="#dbd8d9"/><circle cx="454.605" cy="163.655" r="3.635" fill="#a19a9c"/><circle cx="490.97499999999997" cy="163.655" r="3.635" fill="#241418"/><circle cx="527.345" cy="163.655" r="3.635" fill="#a7a4a0"/><circle cx="563.705" cy="163.655" r="3.635" fill="#bdbab8"/><circle cx="600.075" cy="163.655" r="3.635" fill="#6b6063"/><circle cx="636.4449999999999" cy="163.655" r="3.635" fill="#cdcbc9"/><circle cx="672.8149999999999" cy="163.655" r="3.635" fill="#e7e5e6"/><circle cx="709.185" cy="163.655" r="3.635" fill="#5e5255"/><circle cx="745.555" cy="163.655" r="3.635" fill="#36282b"/><circle cx="781.915" cy="163.655" r="3.635" fill="#36282b"/><circle cx="818.285" cy="163.655" r="3.635" fill="#4e4144"/><circle cx="854.655" cy="163.655" r="3.635" fill="#cac6c7"/><circle cx="891.025" cy="163.655" r="3.635" fill="#aba5a6"/><circle cx="927.395" cy="163.655" r="3.635" fill="#bbb6b7"/><circle cx="963.765" cy="163.655" r="3.635" fill="#edecec"/><circle cx="1000.125" cy="163.655" r="3.635" fill="#f2f1f1"/><circle cx="1036.495" cy="163.655" r="3.635" fill="#e8e7e6"/><circle cx="1072.865" cy="163.655" r="3.635" fill="#706668"/><circle cx="1109.235" cy="163.655" r="3.635" fill="#756b6d"/><circle cx="1145.605" cy="163.655" r="3.635" fill="#423538"/><circle cx="1181.975" cy="163.655" r="3.635" fill="#8c8783"/><circle cx="1218.345" cy="163.655" r="3.635" fill="#cecbcc"/><circle cx="1254.705" cy="163.655" r="3.635" fill="#908c87"/><circle cx="1291.075" cy="163.655" r="3.635" fill="#85817c"/><circle cx="1327.445" cy="163.655" r="3.635" fill="#7a7173"/><circle cx="1363.815" cy="163.655" r="3.635" fill="#f7f7f6"/><circle cx="1400.185" cy="163.655" r="3.635" fill="#faf9f9"/><circle cx="18.185000000000002" cy="200.02499999999998" r="3.635" fill="#979092"/><circle cx="54.555" cy="200.02499999999998" r="3.635" fill="#9c9597"/><circle cx="90.915" cy="200.02499999999998" r="3.635" fill="#fbfbfb"/><circle cx="127.28500000000001" cy="200.02499999999998" r="3.635" fill="#8e8688"/><circle cx="163.655" cy="200.02499999999998" r="3.635" fill="#382a2e"/><circle cx="200.02499999999998" cy="200.02499999999998" r="3.635" fill="#f9f9f9"/><circle cx="236.39499999999998" cy="200.02499999999998" r="3.635" fill="#5d5154"/><circle cx="272.765" cy="200.02499999999998" r="3.635" fill="#6b6163"/><circle cx="309.125" cy="200.02499999999998" r="3.635" fill="#a59ea0"/><circle cx="345.495" cy="200.02499999999998" r="3.635" fill="#938f8b"/><circle cx="381.865" cy="200.02499999999998" r="3.635" fill="#f3f2f2"/><circle cx="418.235" cy="200.02499999999998" r="3.635" fill="#b6b3b0"/><circle cx="454.605" cy="200.02499999999998" r="3.635" fill="#f5f4f4"/><circle cx="490.97499999999997" cy="200.02499999999998" r="3.635" fill="#f9f8f8"/><circle cx="527.345" cy="200.02499999999998" r="3.635" fill="#2c1d21"/><circle cx="563.705" cy="200.02499999999998" r="3.635" fill="#a8a2a4"/><circle cx="600.075" cy="200.02499999999998" r="3.635" fill="#766c6f"/><circle cx="636.4449999999999" cy="200.02499999999998" r="3.635" fill="#eae9e9"/><circle cx="672.8149999999999" cy="200.02499999999998" r="3.635" fill="#d3d2d0"/><circle cx="709.185" cy="200.02499999999998" r="3.635" fill="#918c88"/><circle cx="745.555" cy="200.02499999999998" r="3.635" fill="#756b6e"/><circle cx="781.915" cy="200.02499999999998" r="3.635" fill="#e3e2e1"/><circle cx="818.285" cy="200.02499999999998" r="3.635" fill="#b3b0ad"/><circle cx="854.655" cy="200.02499999999998" r="3.635" fill="#fefefe"/><circle cx="891.025" cy="200.02499999999998" r="3.635" fill="#3f3235"/><circle cx="927.395" cy="200.02499999999998" r="3.635" fill="#a59ea0"/><circle cx="963.765" cy="200.02499999999998" r="3.635" fill="#837a7d"/><circle cx="1000.125" cy="200.02499999999998" r="3.635" fill="#d0cecc"/><circle cx="1036.495" cy="200.02499999999998" r="3.635" fill="#ceccca"/><circle cx="1072.865" cy="200.02499999999998" r="3.635" fill="#c6c3c1"/><circle cx="1109.235" cy="200.02499999999998" r="3.635" fill="#a9a3a5"/><circle cx="1145.605" cy="200.02499999999998" r="3.635" fill="#dcdad9"/><circle cx="1181.975" cy="200.02499999999998" r="3.635" fill="#91898b"/><circle cx="1218.345" cy="200.02499999999998" r="3.635" fill="#fefefd"/><circle cx="1254.705" cy="200.02499999999998" r="3.635" fill="#fefefe"/><circle cx="1291.075" cy="200.02499999999998" r="3.635" fill="#403336"/><circle cx="1327.445" cy="200.02499999999998" r="3.635" fill="#9f989a"/><circle cx="1363.815" cy="200.02499999999998" r="3.635" fill="#b1aeaa"/><circle cx="1400.185" cy="200.02499999999998" r="3.635" fill="#87827d"/><circle cx="18.185000000000002" cy="236.39499999999998" r="3.635" fill="#cac6c7"/><circle cx="54.555" cy="236.39499999999998" r="3.635" fill="#241519"/><circle cx="90.915" cy="236.39499999999998" r="3.635" fill="#493c3f"/><circle cx="127.28500000000001" cy="236.39499999999998" r="3.635" fill="#b9b7b4"/><circle cx="163.655" cy="236.39499999999998" r="3.635" fill="#948c8e"/><circle cx="200.02499999999998" cy="236.39499999999998" r="3.635" fill="#97938f"/><circle cx="236.39499999999998" cy="236.39499999999998" r="3.635" fill="#483b3e"/><circle cx="272.765" cy="236.39499999999998" r="3.635" fill="#221216"/><circle cx="309.125" cy="236.39499999999998" r="3.635" fill="#d0cecd"/><circle cx="345.495" cy="236.39499999999998" r="3.635" fill="#53474a"/><circle cx="381.865" cy="236.39499999999998" r="3.635" fill="#bab5b7"/><circle cx="418.235" cy="236.39499999999998" r="3.635" fill="#887f81"/><circle cx="454.605" cy="236.39499999999998" r="3.635" fill="#26171a"/><circle cx="490.97499999999997" cy="236.39499999999998" r="3.635" fill="#b0adaa"/><circle cx="527.345" cy="236.39499999999998" r="3.635" fill="#cfcccd"/><circle cx="563.705" cy="236.39499999999998" r="3.635" fill="#b8b5b2"/><circle cx="600.075" cy="236.39499999999998" r="3.635" fill="#2d1f22"/><circle cx="636.4449999999999" cy="236.39499999999998" r="3.635" fill="#f6f6f5"/><circle cx="672.8149999999999" cy="236.39499999999998" r="3.635" fill="#f9f9f8"/><circle cx="709.185" cy="236.39499999999998" r="3.635" fill="#9c9894"/><circle cx="745.555" cy="236.39499999999998" r="3.635" fill="#b5afb1"/><circle cx="781.915" cy="236.39499999999998" r="3.635" fill="#eeeded"/><circle cx="818.285" cy="236.39499999999998" r="3.635" fill="#c7c3c4"/><circle cx="854.655" cy="236.39499999999998" r="3.635" fill="#fdfdfd"/><circle cx="891.025" cy="236.39499999999998" r="3.635" fill="#cdcbc9"/><circle cx="927.395" cy="236.39499999999998" r="3.635" fill="#edecec"/><circle cx="963.765" cy="236.39499999999998" r="3.635" fill="#898580"/><circle cx="1000.125" cy="236.39499999999998" r="3.635" fill="#cdcbc9"/><circle cx="1036.495" cy="236.39499999999998" r="3.635" fill="#514548"/><circle cx="1072.865" cy="236.39499999999998" r="3.635" fill="#dbd9d9"/><circle cx="1109.235" cy="236.39499999999998" r="3.635" fill="#4f4245"/><circle cx="1145.605" cy="236.39499999999998" r="3.635" fill="#afaca9"/><circle cx="1181.975" cy="236.39499999999998" r="3.635" fill="#98938f"/><circle cx="1218.345" cy="236.39499999999998" r="3.635" fill="#fefefe"/><circle cx="1254.705" cy="236.39499999999998" r="3.635" fill="#d6d5d3"/><circle cx="1291.075" cy="236.39499999999998" r="3.635" fill="#8f8b86"/><circle cx="1327.445" cy="236.39499999999998" r="3.635" fill="#ebeae9"/><circle cx="1363.815" cy="236.39499999999998" r="3.635" fill="#63585b"/><circle cx="1400.185" cy="236.39499999999998" r="3.635" fill="#a9a6a3"/><circle cx="18.185000000000002" cy="272.765" r="3.635" fill="#e2e1df"/><circle cx="54.555" cy="272.765" r="3.635" fill="#938f8a"/><circle cx="90.915" cy="272.765" r="3.635" fill="#5c5053"/><circle cx="127.28500000000001" cy="272.765" r="3.635" fill="#faf9f9"/><circle cx="163.655" cy="272.765" r="3.635" fill="#86817c"/><circle cx="200.02499999999998" cy="272.765" r="3.635" fill="#756b6e"/><circle cx="236.39499999999998" cy="272.765" r="3.635" fill="#847f7a"/><circle cx="272.765" cy="272.765" r="3.635" fill="#4c4043"/><circle cx="309.125" cy="272.765" r="3.635" fill="#a9a3a4"/><circle cx="345.495" cy="272.765" r="3.635" fill="#8f8a86"/><circle cx="381.865" cy="272.765" r="3.635" fill="#b4aeb0"/><circle cx="418.235" cy="272.765" r="3.635" fill="#8c8782"/><circle cx="454.605" cy="272.765" r="3.635" fill="#dcdadb"/><circle cx="490.97499999999997" cy="272.765" r="3.635" fill="#b3adae"/><circle cx="527.345" cy="272.765" r="3.635" fill="#ececeb"/><circle cx="563.705" cy="272.765" r="3.635" fill="#3a2c30"/><circle cx="600.075" cy="272.765" r="3.635" fill="#291a1d"/><circle cx="636.4449999999999" cy="272.765" r="3.635" fill="#cdcbca"/><circle cx="672.8149999999999" cy="272.765" r="3.635" fill="#e0dedd"/><circle cx="709.185" cy="272.765" r="3.635" fill="#8f8b86"/><circle cx="745.555" cy="272.765" r="3.635" fill="#6b6163"/><circle cx="781.915" cy="272.765" r="3.635" fill="#aca9a6"/><circle cx="818.285" cy="272.765" r="3.635" fill="#9a9691"/><circle cx="854.655" cy="272.765" r="3.635" fill="#55494c"/><circle cx="891.025" cy="272.765" r="3.635" fill="#211216"/><circle cx="927.395" cy="272.765" r="3.635" fill="#8b8682"/><circle cx="963.765" cy="272.765" r="3.635" fill="#fdfdfd"/><circle cx="1000.125" cy="272.765" r="3.635" fill="#9a9692"/><circle cx="1036.495" cy="272.765" r="3.635" fill="#26161a"/><circle cx="1072.865" cy="272.765" r="3.635" fill="#e2e0e0"/><circle cx="1109.235" cy="272.765" r="3.635" fill="#c3c1be"/><circle cx="1145.605" cy="272.765" r="3.635" fill="#b9b6b4"/><circle cx="1181.975" cy="272.765" r="3.635" fill="#887f81"/><circle cx="1218.345" cy="272.765" r="3.635" fill="#b4b1ae"/><circle cx="1254.705" cy="272.765" r="3.635" fill="#655a5c"/><circle cx="1291.075" cy="272.765" r="3.635" fill="#cbc7c8"/><circle cx="1327.445" cy="272.765" r="3.635" fill="#8d8984"/><circle cx="1363.815" cy="272.765" r="3.635" fill="#beb9bb"/><circle cx="1400.185" cy="272.765" r="3.635" fill="#766c6e"/><circle cx="18.185000000000002" cy="309.125" r="3.635" fill="#cdcbc9"/><circle cx="54.555" cy="309.125" r="3.635" fill="#adaaa7"/><circle cx="90.915" cy="309.125" r="3.635" fill="#71676a"/><circle cx="127.28500000000001" cy="309.125" r="3.635" fill="#e0dedd"/><circle cx="163.655" cy="309.125" r="3.635" fill="#847c7e"/><circle cx="200.02499999999998" cy="309.125" r="3.635" fill="#b1acad"/><circle cx="236.39499999999998" cy="309.125" r="3.635" fill="#989193"/><circle cx="272.765" cy="309.125" r="3.635" fill="#bab7b5"/><circle cx="309.125" cy="309.125" r="3.635" fill="#8d8883"/><circle cx="345.495" cy="309.125" r="3.635" fill="#807779"/><circle cx="381.865" cy="309.125" r="3.635" fill="#3b2d31"/><circle cx="418.235" cy="309.125" r="3.635" fill="#3b2d31"/><circle cx="454.605" cy="309.125" r="3.635" fill="#f5f4f4"/><circle cx="490.97499999999997" cy="309.125" r="3.635" fill="#3c2e31"/><circle cx="527.345" cy="309.125" r="3.635" fill="#716769"/><circle cx="563.705" cy="309.125" r="3.635" fill="#bbb9b6"/><circle cx="600.075" cy="309.125" r="3.635" fill="#948f8b"/><circle cx="636.4449999999999" cy="309.125" r="3.635" fill="#4b3f42"/><circle cx="672.8149999999999" cy="309.125" r="3.635" fill="#b2afac"/><circle cx="709.185" cy="309.125" r="3.635" fill="#b8b5b2"/><circle cx="745.555" cy="309.125" r="3.635" fill="#c2bfbd"/><circle cx="781.915" cy="309.125" r="3.635" fill="#87827d"/><circle cx="818.285" cy="309.125" r="3.635" fill="#fbfbfb"/><circle cx="854.655" cy="309.125" r="3.635" fill="#a8a5a1"/><circle cx="891.025" cy="309.125" r="3.635" fill="#d1cfce"/><circle cx="927.395" cy="309.125" r="3.635" fill="#908b87"/><circle cx="963.765" cy="309.125" r="3.635" fill="#7e7577"/><circle cx="1000.125" cy="309.125" r="3.635" fill="#c4c2c0"/><circle cx="1036.495" cy="309.125" r="3.635" fill="#8f8b86"/><circle cx="1072.865" cy="309.125" r="3.635" fill="#bab7b4"/><circle cx="1109.235" cy="309.125" r="3.635" fill="#fcfcfc"/><circle cx="1145.605" cy="309.125" r="3.635" fill="#b9b6b3"/><circle cx="1181.975" cy="309.125" r="3.635" fill="#695f61"/><circle cx="1218.345" cy="309.125" r="3.635" fill="#8d8587"/><circle cx="1254.705" cy="309.125" r="3.635" fill="#c8c6c4"/><circle cx="1291.075" cy="309.125" r="3.635" fill="#ceccca"/><circle cx="1327.445" cy="309.125" r="3.635" fill="#c3c0be"/><circle cx="1363.815" cy="309.125" r="3.635" fill="#f6f5f5"/><circle cx="1400.185" cy="309.125" r="3.635" fill="#dddcda"/><circle cx="18.185000000000002" cy="345.495" r="3.635" fill="#a6a0a1"/><circle cx="54.555" cy="345.495" r="3.635" fill="#aeaba7"/><circle cx="90.915" cy="345.495" r="3.635" fill="#cdc9ca"/><circle cx="127.28500000000001" cy="345.495" r="3.635" fill="#aba5a6"/><circle cx="163.655" cy="345.495" r="3.635" fill="#d1cfcd"/><circle cx="200.02499999999998" cy="345.495" r="3.635" fill="#a69fa1"/><circle cx="236.39499999999998" cy="345.495" r="3.635" fill="#b9b4b5"/><circle cx="272.765" cy="345.495" r="3.635" fill="#b5b2af"/><circle cx="309.125" cy="345.495" r="3.635" fill="#fafafa"/><circle cx="345.495" cy="345.495" r="3.635" fill="#aca6a7"/><circle cx="381.865" cy="345.495" r="3.635" fill="#72686a"/><circle cx="418.235" cy="345.495" r="3.635" fill="#2c1d21"/><circle cx="454.605" cy="345.495" r="3.635" fill="#938f8b"/><circle cx="490.97499999999997" cy="345.495" r="3.635" fill="#85807b"/><circle cx="527.345" cy="345.495" r="3.635" fill="#fcfcfc"/><circle cx="563.705" cy="345.495" r="3.635" fill="#aca9a5"/><circle cx="600.075" cy="345.495" r="3.635" fill="#e1e0df"/><circle cx="636.4449999999999" cy="345.495" r="3.635" fill="#c4c1bf"/><circle cx="672.8149999999999" cy="345.495" r="3.635" fill="#b2afab"/><circle cx="709.185" cy="345.495" r="3.635" fill="#8c8883"/><circle cx="745.555" cy="345.495" r="3.635" fill="#392b2e"/><circle cx="781.915" cy="345.495" r="3.635" fill="#46383c"/><circle cx="818.285" cy="345.495" r="3.635" fill="#bab5b6"/><circle cx="854.655" cy="345.495" r="3.635" fill="#88847f"/><circle cx="891.025" cy="345.495" r="3.635" fill="#eae8e8"/><circle cx="927.395" cy="345.495" r="3.635" fill="#f2f1f1"/><circle cx="963.765" cy="345.495" r="3.635" fill="#e4e2e3"/><circle cx="1000.125" cy="345.495" r="3.635" fill="#6f6467"/><circle cx="1036.495" cy="345.495" r="3.635" fill="#eeeded"/><circle cx="1072.865" cy="345.495" r="3.635" fill="#e4e3e2"/><circle cx="1109.235" cy="345.495" r="3.635" fill="#1f1014"/><circle cx="1145.605" cy="345.495" r="3.635" fill="#9b9793"/><circle cx="1181.975" cy="345.495" r="3.635" fill="#c8c4c5"/><circle cx="1218.345" cy="345.495" r="3.635" fill="#a9a3a5"/><circle cx="1254.705" cy="345.495" r="3.635" fill="#88837f"/><circle cx="1291.075" cy="345.495" r="3.635" fill="#989193"/><circle cx="1327.445" cy="345.495" r="3.635" fill="#867e80"/><circle cx="1363.815" cy="345.495" r="3.635" fill="#211216"/><circle cx="1400.185" cy="345.495" r="3.635" fill="#aeaba8"/><circle cx="18.185000000000002" cy="381.865" r="3.635" fill="#847f7a"/><circle cx="54.555" cy="381.865" r="3.635" fill="#483b3f"/><circle cx="90.915" cy="381.865" r="3.635" fill="#8b8385"/><circle cx="127.28500000000001" cy="381.865" r="3.635" fill="#c8c4c5"/><circle cx="163.655" cy="381.865" r="3.635" fill="#dddcda"/><circle cx="200.02499999999998" cy="381.865" r="3.635" fill="#e3e1e0"/><circle cx="236.39499999999998" cy="381.865" r="3.635" fill="#90888a"/><circle cx="272.765" cy="381.865" r="3.635" fill="#746a6c"/><circle cx="309.125" cy="381.865" r="3.635" fill="#c1bfbc"/><circle cx="345.495" cy="381.865" r="3.635" fill="#e6e5e4"/><circle cx="381.865" cy="381.865" r="3.635" fill="#86817c"/><circle cx="418.235" cy="381.865" r="3.635" fill="#b6b3b0"/><circle cx="454.605" cy="381.865" r="3.635" fill="#5e5255"/><circle cx="490.97499999999997" cy="381.865" r="3.635" fill="#9a9692"/><circle cx="527.345" cy="381.865" r="3.635" fill="#dedddb"/><circle cx="563.705" cy="381.865" r="3.635" fill="#938f8b"/><circle cx="600.075" cy="381.865" r="3.635" fill="#d2d0ce"/><circle cx="636.4449999999999" cy="381.865" r="3.635" fill="#a29c9d"/><circle cx="672.8149999999999" cy="381.865" r="3.635" fill="#38292d"/><circle cx="709.185" cy="381.865" r="3.635" fill="#dedcdd"/><circle cx="745.555" cy="381.865" r="3.635" fill="#d3d1cf"/><circle cx="781.915" cy="381.865" r="3.635" fill="#776e70"/><circle cx="818.285" cy="381.865" r="3.635" fill="#9b9793"/><circle cx="854.655" cy="381.865" r="3.635" fill="#6f6568"/><circle cx="891.025" cy="381.865" r="3.635" fill="#403336"/><circle cx="927.395" cy="381.865" r="3.635" fill="#b6b1b2"/><circle cx="963.765" cy="381.865" r="3.635" fill="#d6d4d2"/><circle cx="1000.125" cy="381.865" r="3.635" fill="#3b2d31"/><circle cx="1036.495" cy="381.865" r="3.635" fill="#b9b6b4"/><circle cx="1072.865" cy="381.865" r="3.635" fill="#e0dfdd"/><circle cx="1109.235" cy="381.865" r="3.635" fill="#f8f8f7"/><circle cx="1145.605" cy="381.865" r="3.635" fill="#a5a19d"/><circle cx="1181.975" cy="381.865" r="3.635" fill="#a9a6a2"/><circle cx="1218.345" cy="381.865" r="3.635" fill="#e1e0df"/><circle cx="1254.705" cy="381.865" r="3.635" fill="#a4a19d"/><circle cx="1291.075" cy="381.865" r="3.635" fill="#968e90"/><circle cx="1327.445" cy="381.865" r="3.635" fill="#28181c"/><circle cx="1363.815" cy="381.865" r="3.635" fill="#403236"/><circle cx="1400.185" cy="381.865" r="3.635" fill="#b1adaa"/><circle cx="18.185000000000002" cy="418.235" r="3.635" fill="#a6a0a1"/><circle cx="54.555" cy="418.235" r="3.635" fill="#e1e0de"/><circle cx="90.915" cy="418.235" r="3.635" fill="#c5c3c0"/><circle cx="127.28500000000001" cy="418.235" r="3.635" fill="#f0eff0"/><circle cx="163.655" cy="418.235" r="3.635" fill="#9f989a"/><circle cx="200.02499999999998" cy="418.235" r="3.635" fill="#bdbab8"/><circle cx="236.39499999999998" cy="418.235" r="3.635" fill="#cccac8"/><circle cx="272.765" cy="418.235" r="3.635" fill="#756b6e"/><circle cx="309.125" cy="418.235" r="3.635" fill="#f6f6f5"/><circle cx="345.495" cy="418.235" r="3.635" fill="#e6e4e4"/><circle cx="381.865" cy="418.235" r="3.635" fill="#c4c2bf"/><circle cx="418.235" cy="418.235" r="3.635" fill="#7d7376"/><circle cx="454.605" cy="418.235" r="3.635" fill="#adaaa7"/><circle cx="490.97499999999997" cy="418.235" r="3.635" fill="#a6a29f"/><circle cx="527.345" cy="418.235" r="3.635" fill="#898183"/><circle cx="563.705" cy="418.235" r="3.635" fill="#eeedec"/><circle cx="600.075" cy="418.235" r="3.635" fill="#867d80"/><circle cx="636.4449999999999" cy="418.235" r="3.635" fill="#413337"/><circle cx="672.8149999999999" cy="418.235" r="3.635" fill="#a9a6a2"/><circle cx="709.185" cy="418.235" r="3.635" fill="#938f8b"/><circle cx="745.555" cy="418.235" r="3.635" fill="#958d8f"/><circle cx="781.915" cy="418.235" r="3.635" fill="#28191d"/><circle cx="818.285" cy="418.235" r="3.635" fill="#fafaf9"/><circle cx="854.655" cy="418.235" r="3.635" fill="#d9d7d6"/><circle cx="891.025" cy="418.235" r="3.635" fill="#a19a9c"/><circle cx="927.395" cy="418.235" r="3.635" fill="#e2e0df"/><circle cx="963.765" cy="418.235" r="3.635" fill="#b9b4b5"/><circle cx="1000.125" cy="418.235" r="3.635" fill="#7f7678"/><circle cx="1036.495" cy="418.235" r="3.635" fill="#d9d7d7"/><circle cx="1072.865" cy="418.235" r="3.635" fill="#9f9b97"/><circle cx="1109.235" cy="418.235" r="3.635" fill="#cbc9c7"/><circle cx="1145.605" cy="418.235" r="3.635" fill="#cbc9c6"/><circle cx="1181.975" cy="418.235" r="3.635" fill="#6c6164"/><circle cx="1218.345" cy="418.235" r="3.635" fill="#d8d6d5"/><circle cx="1254.705" cy="418.235" r="3.635" fill="#9c9894"/><circle cx="1291.075" cy="418.235" r="3.635" fill="#9b9793"/><circle cx="1327.445" cy="418.235" r="3.635" fill="#bdbbb8"/><circle cx="1363.815" cy="418.235" r="3.635" fill="#e5e3e3"/><circle cx="1400.185" cy="418.235" r="3.635" fill="#5d5154"/><circle cx="18.185000000000002" cy="454.605" r="3.635" fill="#aca9a6"/><circle cx="54.555" cy="454.605" r="3.635" fill="#d1cdce"/><circle cx="90.915" cy="454.605" r="3.635" fill="#b5b2af"/><circle cx="127.28500000000001" cy="454.605" r="3.635" fill="#d5d2d3"/><circle cx="163.655" cy="454.605" r="3.635" fill="#7b7174"/><circle cx="200.02499999999998" cy="454.605" r="3.635" fill="#9e9a96"/><circle cx="236.39499999999998" cy="454.605" r="3.635" fill="#9f9b97"/><circle cx="272.765" cy="454.605" r="3.635" fill="#6d6265"/><circle cx="309.125" cy="454.605" r="3.635" fill="#3c2e32"/><circle cx="345.495" cy="454.605" r="3.635" fill="#8e8985"/><circle cx="381.865" cy="454.605" r="3.635" fill="#c3bfc0"/><circle cx="418.235" cy="454.605" r="3.635" fill="#c3c1be"/><circle cx="454.605" cy="454.605" r="3.635" fill="#f1f0f0"/><circle cx="490.97499999999997" cy="454.605" r="3.635" fill="#898480"/><circle cx="527.345" cy="454.605" r="3.635" fill="#b6b3b0"/><circle cx="563.705" cy="454.605" r="3.635" fill="#ebeaea"/><circle cx="600.075" cy="454.605" r="3.635" fill="#7a7173"/><circle cx="636.4449999999999" cy="454.605" r="3.635" fill="#cfcdcb"/><circle cx="672.8149999999999" cy="454.605" r="3.635" fill="#a49d9f"/><circle cx="709.185" cy="454.605" r="3.635" fill="#2c1d21"/><circle cx="745.555" cy="454.605" r="3.635" fill="#bebcb9"/><circle cx="781.915" cy="454.605" r="3.635" fill="#887f82"/><circle cx="818.285" cy="454.605" r="3.635" fill="#c5c2c0"/><circle cx="854.655" cy="454.605" r="3.635" fill="#f0efef"/><circle cx="891.025" cy="454.605" r="3.635" fill="#8b8284"/><circle cx="927.395" cy="454.605" r="3.635" fill="#483a3e"/><circle cx="963.765" cy="454.605" r="3.635" fill="#b4b1ae"/><circle cx="1000.125" cy="454.605" r="3.635" fill="#b7b4b1"/><circle cx="1036.495" cy="454.605" r="3.635" fill="#97938f"/><circle cx="1072.865" cy="454.605" r="3.635" fill="#82797b"/><circle cx="1109.235" cy="454.605" r="3.635" fill="#898580"/><circle cx="1145.605" cy="454.605" r="3.635" fill="#9e9799"/><circle cx="1181.975" cy="454.605" r="3.635" fill="#cecccb"/><circle cx="1218.345" cy="454.605" r="3.635" fill="#dcdada"/><circle cx="1254.705" cy="454.605" r="3.635" fill="#53474a"/><circle cx="1291.075" cy="454.605" r="3.635" fill="#bab7b4"/><circle cx="1327.445" cy="454.605" r="3.635" fill="#a19a9c"/><circle cx="1363.815" cy="454.605" r="3.635" fill="#b4b1ae"/><circle cx="1400.185" cy="454.605" r="3.635" fill="#ccc8c9"/><circle cx="18.185000000000002" cy="490.97499999999997" r="3.635" fill="#f9f8f8"/><circle cx="54.555" cy="490.97499999999997" r="3.635" fill="#8f8b86"/><circle cx="90.915" cy="490.97499999999997" r="3.635" fill="#cdcbc9"/><circle cx="127.28500000000001" cy="490.97499999999997" r="3.635" fill="#f9f8f9"/><circle cx="163.655" cy="490.97499999999997" r="3.635" fill="#64585b"/><circle cx="200.02499999999998" cy="490.97499999999997" r="3.635" fill="#dad7d8"/><circle cx="236.39499999999998" cy="490.97499999999997" r="3.635" fill="#564a4d"/><circle cx="272.765" cy="490.97499999999997" r="3.635" fill="#72686a"/><circle cx="309.125" cy="490.97499999999997" r="3.635" fill="#46393c"/><circle cx="345.495" cy="490.97499999999997" r="3.635" fill="#9a9691"/><circle cx="381.865" cy="490.97499999999997" r="3.635" fill="#d7d6d4"/><circle cx="418.235" cy="490.97499999999997" r="3.635" fill="#9a9294"/><circle cx="454.605" cy="490.97499999999997" r="3.635" fill="#bab8b5"/><circle cx="490.97499999999997" cy="490.97499999999997" r="3.635" fill="#cecacb"/><circle cx="527.345" cy="490.97499999999997" r="3.635" fill="#45383b"/><circle cx="563.705" cy="490.97499999999997" r="3.635" fill="#d9d7d7"/><circle cx="600.075" cy="490.97499999999997" r="3.635" fill="#e4e3e2"/><circle cx="636.4449999999999" cy="490.97499999999997" r="3.635" fill="#bbb8b5"/><circle cx="672.8149999999999" cy="490.97499999999997" r="3.635" fill="#edecec"/><circle cx="709.185" cy="490.97499999999997" r="3.635" fill="#ffffff"/><circle cx="745.555" cy="490.97499999999997" r="3.635" fill="#e4e2e2"/><circle cx="781.915" cy="490.97499999999997" r="3.635" fill="#5a4e51"/><circle cx="818.285" cy="490.97499999999997" r="3.635" fill="#908c88"/><circle cx="854.655" cy="490.97499999999997" r="3.635" fill="#332428"/><circle cx="891.025" cy="490.97499999999997" r="3.635" fill="#b7b2b3"/><circle cx="927.395" cy="490.97499999999997" r="3.635" fill="#8f8a86"/><circle cx="963.765" cy="490.97499999999997" r="3.635" fill="#fbfbfb"/><circle cx="1000.125" cy="490.97499999999997" r="3.635" fill="#53464a"/><circle cx="1036.495" cy="490.97499999999997" r="3.635" fill="#f9f9f8"/><circle cx="1072.865" cy="490.97499999999997" r="3.635" fill="#bab7b4"/><circle cx="1109.235" cy="490.97499999999997" r="3.635" fill="#ada7a9"/><circle cx="1145.605" cy="490.97499999999997" r="3.635" fill="#d8d7d5"/><circle cx="1181.975" cy="490.97499999999997" r="3.635" fill="#837e79"/><circle cx="1218.345" cy="490.97499999999997" r="3.635" fill="#fbfbfb"/><circle cx="1254.705" cy="490.97499999999997" r="3.635" fill="#b0adaa"/><circle cx="1291.075" cy="490.97499999999997" r="3.635" fill="#29191d"/><circle cx="1327.445" cy="490.97499999999997" r="3.635" fill="#473a3e"/><circle cx="1363.815" cy="490.97499999999997" r="3.635" fill="#8c8486"/><circle cx="1400.185" cy="490.97499999999997" r="3.635" fill="#837e79"/><circle cx="18.185000000000002" cy="527.345" r="3.635" fill="#898083"/><circle cx="54.555" cy="527.345" r="3.635" fill="#bfbcba"/><circle cx="90.915" cy="527.345" r="3.635" fill="#c6c4c1"/><circle cx="127.28500000000001" cy="527.345" r="3.635" fill="#edecec"/><circle cx="163.655" cy="527.345" r="3.635" fill="#716769"/><circle cx="200.02499999999998" cy="527.345" r="3.635" fill="#c8c6c4"/><circle cx="236.39499999999998" cy="527.345" r="3.635" fill="#e1e0df"/><circle cx="272.765" cy="527.345" r="3.635" fill="#b2adae"/><circle cx="309.125" cy="527.345" r="3.635" fill="#c5c3c0"/><circle cx="345.495" cy="527.345" r="3.635" fill="#938c8e"/><circle cx="381.865" cy="527.345" r="3.635" fill="#e8e8e7"/><circle cx="418.235" cy="527.345" r="3.635" fill="#231418"/><circle cx="454.605" cy="527.345" r="3.635" fill="#cecbcc"/><circle cx="490.97499999999997" cy="527.345" r="3.635" fill="#dcdbd9"/><circle cx="527.345" cy="527.345" r="3.635" fill="#dddbda"/><circle cx="563.705" cy="527.345" r="3.635" fill="#615659"/><circle cx="600.075" cy="527.345" r="3.635" fill="#c0bbbc"/><circle cx="636.4449999999999" cy="527.345" r="3.635" fill="#807779"/><circle cx="672.8149999999999" cy="527.345" r="3.635" fill="#4b3e41"/><circle cx="709.185" cy="527.345" r="3.635" fill="#b5b2af"/><circle cx="745.555" cy="527.345" r="3.635" fill="#8d8486"/><circle cx="781.915" cy="527.345" r="3.635" fill="#685e60"/><circle cx="818.285" cy="527.345" r="3.635" fill="#3a2c2f"/><circle cx="854.655" cy="527.345" r="3.635" fill="#cbc9c6"/><circle cx="891.025" cy="527.345" r="3.635" fill="#a39c9e"/><circle cx="927.395" cy="527.345" r="3.635" fill="#a9a6a2"/><circle cx="963.765" cy="527.345" r="3.635" fill="#82797b"/><circle cx="1000.125" cy="527.345" r="3.635" fill="#675d5f"/><circle cx="1036.495" cy="527.345" r="3.635" fill="#8c8486"/><circle cx="1072.865" cy="527.345" r="3.635" fill="#908b87"/><circle cx="1109.235" cy="527.345" r="3.635" fill="#edecec"/><circle cx="1145.605" cy="527.345" r="3.635" fill="#2e1f23"/><circle cx="1181.975" cy="527.345" r="3.635" fill="#928e89"/><circle cx="1218.345" cy="527.345" r="3.635" fill="#96928e"/><circle cx="1254.705" cy="527.345" r="3.635" fill="#a19d9a"/><circle cx="1291.075" cy="527.345" r="3.635" fill="#d7d4d5"/><circle cx="1327.445" cy="527.345" r="3.635" fill="#433639"/><circle cx="1363.815" cy="527.345" r="3.635" fill="#fbfbfb"/><circle cx="1400.185" cy="527.345" r="3.635" fill="#605558"/><circle cx="18.185000000000002" cy="563.705" r="3.635" fill="#b0aaac"/><circle cx="54.555" cy="563.705" r="3.635" fill="#cccac8"/><circle cx="90.915" cy="563.705" r="3.635" fill="#b0abac"/><circle cx="127.28500000000001" cy="563.705" r="3.635" fill="#b7b4b2"/><circle cx="163.655" cy="563.705" r="3.635" fill="#8e8688"/><circle cx="200.02499999999998" cy="563.705" r="3.635" fill="#f1f0f0"/><circle cx="236.39499999999998" cy="563.705" r="3.635" fill="#8e8a85"/><circle cx="272.765" cy="563.705" r="3.635" fill="#2f2024"/><circle cx="309.125" cy="563.705" r="3.635" fill="#827d78"/><circle cx="345.495" cy="563.705" r="3.635" fill="#382a2d"/><circle cx="381.865" cy="563.705" r="3.635" fill="#a7a1a2"/><circle cx="418.235" cy="563.705" r="3.635" fill="#c9c5c6"/><circle cx="454.605" cy="563.705" r="3.635" fill="#c0bbbc"/><circle cx="490.97499999999997" cy="563.705" r="3.635" fill="#edeceb"/><circle cx="527.345" cy="563.705" r="3.635" fill="#a4a19d"/><circle cx="563.705" cy="563.705" r="3.635" fill="#63585b"/><circle cx="600.075" cy="563.705" r="3.635" fill="#f9f8f8"/><circle cx="636.4449999999999" cy="563.705" r="3.635" fill="#ebebea"/><circle cx="672.8149999999999" cy="563.705" r="3.635" fill="#a49ea0"/><circle cx="709.185" cy="563.705" r="3.635" fill="#e9e8e7"/><circle cx="745.555" cy="563.705" r="3.635" fill="#d8d7d5"/><circle cx="781.915" cy="563.705" r="3.635" fill="#655a5d"/><circle cx="818.285" cy="563.705" r="3.635" fill="#8c8486"/><circle cx="854.655" cy="563.705" r="3.635" fill="#5f5456"/><circle cx="891.025" cy="563.705" r="3.635" fill="#f6f6f6"/><circle cx="927.395" cy="563.705" r="3.635" fill="#aba7a4"/><circle cx="963.765" cy="563.705" r="3.635" fill="#a19e9a"/><circle cx="1000.125" cy="563.705" r="3.635" fill="#e5e4e3"/><circle cx="1036.495" cy="563.705" r="3.635" fill="#85807b"/><circle cx="1072.865" cy="563.705" r="3.635" fill="#35272a"/><circle cx="1109.235" cy="563.705" r="3.635" fill="#d9d7d6"/><circle cx="1145.605" cy="563.705" r="3.635" fill="#ccc8c9"/><circle cx="1181.975" cy="563.705" r="3.635" fill="#e6e4e5"/><circle cx="1218.345" cy="563.705" r="3.635" fill="#b1abad"/><circle cx="1254.705" cy="563.705" r="3.635" fill="#97928e"/><circle cx="1291.075" cy="563.705" r="3.635" fill="#999294"/><circle cx="1327.445" cy="563.705" r="3.635" fill="#9a9692"/><circle cx="1363.815" cy="563.705" r="3.635" fill="#403336"/><circle cx="1400.185" cy="563.705" r="3.635" fill="#9a9692"/><circle cx="18.185000000000002" cy="600.075" r="3.635" fill="#f7f7f7"/><circle cx="54.555" cy="600.075" r="3.635" fill="#796f72"/><circle cx="90.915" cy="600.075" r="3.635" fill="#898480"/><circle cx="127.28500000000001" cy="600.075" r="3.635" fill="#44373a"/><circle cx="163.655" cy="600.075" r="3.635" fill="#ffffff"/><circle cx="200.02499999999998" cy="600.075" r="3.635" fill="#9e9798"/><circle cx="236.39499999999998" cy="600.075" r="3.635" fill="#9a9395"/><circle cx="272.765" cy="600.075" r="3.635" fill="#f2f1f1"/><circle cx="309.125" cy="600.075" r="3.635" fill="#f4f3f3"/><circle cx="345.495" cy="600.075" r="3.635" fill="#f3f2f2"/><circle cx="381.865" cy="600.075" r="3.635" fill="#c0bebb"/><circle cx="418.235" cy="600.075" r="3.635" fill="#efeeed"/><circle cx="454.605" cy="600.075" r="3.635" fill="#a8a2a3"/><circle cx="490.97499999999997" cy="600.075" r="3.635" fill="#3d3033"/><circle cx="527.345" cy="600.075" r="3.635" fill="#55494c"/><circle cx="563.705" cy="600.075" r="3.635" fill="#938b8d"/><circle cx="600.075" cy="600.075" r="3.635" fill="#433639"/><circle cx="636.4449999999999" cy="600.075" r="3.635" fill="#fefdfd"/><circle cx="672.8149999999999" cy="600.075" r="3.635" fill="#d5d4d2"/><circle cx="709.185" cy="600.075" r="3.635" fill="#55494c"/><circle cx="745.555" cy="600.075" r="3.635" fill="#948d8f"/><circle cx="781.915" cy="600.075" r="3.635" fill="#d9d7d6"/><circle cx="818.285" cy="600.075" r="3.635" fill="#a59ea0"/><circle cx="854.655" cy="600.075" r="3.635" fill="#342529"/><circle cx="891.025" cy="600.075" r="3.635" fill="#96918d"/><circle cx="927.395" cy="600.075" r="3.635" fill="#cbc9c6"/><circle cx="963.765" cy="600.075" r="3.635" fill="#f7f7f7"/><circle cx="1000.125" cy="600.075" r="3.635" fill="#efeeed"/><circle cx="1036.495" cy="600.075" r="3.635" fill="#e6e5e5"/><circle cx="1072.865" cy="600.075" r="3.635" fill="#9f9b97"/><circle cx="1109.235" cy="600.075" r="3.635" fill="#e7e6e5"/><circle cx="1145.605" cy="600.075" r="3.635" fill="#534649"/><circle cx="1181.975" cy="600.075" r="3.635" fill="#d7d4d4"/><circle cx="1218.345" cy="600.075" r="3.635" fill="#f9f8f8"/><circle cx="1254.705" cy="600.075" r="3.635" fill="#efedee"/><circle cx="1291.075" cy="600.075" r="3.635" fill="#978f91"/><circle cx="1327.445" cy="600.075" r="3.635" fill="#f1f0f1"/><circle cx="1363.815" cy="600.075" r="3.635" fill="#342629"/><circle cx="1400.185" cy="600.075" r="3.635" fill="#989490"/><circle cx="18.185000000000002" cy="636.4449999999999" r="3.635" fill="#7d7476"/><circle cx="54.555" cy="636.4449999999999" r="3.635" fill="#7c7275"/><circle cx="90.915" cy="636.4449999999999" r="3.635" fill="#8a8681"/><circle cx="127.28500000000001" cy="636.4449999999999" r="3.635" fill="#fefefe"/><circle cx="163.655" cy="636.4449999999999" r="3.635" fill="#6c6265"/><circle cx="200.02499999999998" cy="636.4449999999999" r="3.635" fill="#b5b2af"/><circle cx="236.39499999999998" cy="636.4449999999999" r="3.635" fill="#ecebea"/><circle cx="272.765" cy="636.4449999999999" r="3.635" fill="#8a8183"/><circle cx="309.125" cy="636.4449999999999" r="3.635" fill="#fcfbfb"/><circle cx="345.495" cy="636.4449999999999" r="3.635" fill="#bbb8b5"/><circle cx="381.865" cy="636.4449999999999" r="3.635" fill="#88837f"/><circle cx="418.235" cy="636.4449999999999" r="3.635" fill="#b5b0b1"/><circle cx="454.605" cy="636.4449999999999" r="3.635" fill="#312326"/><circle cx="490.97499999999997" cy="636.4449999999999" r="3.635" fill="#c2c0bd"/><circle cx="527.345" cy="636.4449999999999" r="3.635" fill="#cfcdcb"/><circle cx="563.705" cy="636.4449999999999" r="3.635" fill="#dbd8d9"/><circle cx="600.075" cy="636.4449999999999" r="3.635" fill="#aba5a7"/><circle cx="636.4449999999999" cy="636.4449999999999" r="3.635" fill="#e9e8e8"/><circle cx="672.8149999999999" cy="636.4449999999999" r="3.635" fill="#dcdada"/><circle cx="709.185" cy="636.4449999999999" r="3.635" fill="#dcdbda"/><circle cx="745.555" cy="636.4449999999999" r="3.635" fill="#c8c6c4"/><circle cx="781.915" cy="636.4449999999999" r="3.635" fill="#8f8b86"/><circle cx="818.285" cy="636.4449999999999" r="3.635" fill="#86827d"/><circle cx="854.655" cy="636.4449999999999" r="3.635" fill="#fdfdfd"/><circle cx="891.025" cy="636.4449999999999" r="3.635" fill="#cccac8"/><circle cx="927.395" cy="636.4449999999999" r="3.635" fill="#bcb7b8"/><circle cx="963.765" cy="636.4449999999999" r="3.635" fill="#241519"/><circle cx="1000.125" cy="636.4449999999999" r="3.635" fill="#b8b5b3"/><circle cx="1036.495" cy="636.4449999999999" r="3.635" fill="#695f61"/><circle cx="1072.865" cy="636.4449999999999" r="3.635" fill="#c0bcbd"/><circle cx="1109.235" cy="636.4449999999999" r="3.635" fill="#e5e3e3"/><circle cx="1145.605" cy="636.4449999999999" r="3.635" fill="#6a5f62"/><circle cx="1181.975" cy="636.4449999999999" r="3.635" fill="#f1f0f0"/><circle cx="1218.345" cy="636.4449999999999" r="3.635" fill="#f4f3f3"/><circle cx="1254.705" cy="636.4449999999999" r="3.635" fill="#d6d3d4"/><circle cx="1291.075" cy="636.4449999999999" r="3.635" fill="#948f8b"/><circle cx="1327.445" cy="636.4449999999999" r="3.635" fill="#edeceb"/><circle cx="1363.815" cy="636.4449999999999" r="3.635" fill="#d9d8d6"/><circle cx="1400.185" cy="636.4449999999999" r="3.635" fill="#857c7e"/><circle cx="18.185000000000002" cy="672.8149999999999" r="3.635" fill="#948f8b"/><circle cx="54.555" cy="672.8149999999999" r="3.635" fill="#c2bfbd"/><circle cx="90.915" cy="672.8149999999999" r="3.635" fill="#dedddb"/><circle cx="127.28500000000001" cy="672.8149999999999" r="3.635" fill="#a8a5a1"/><circle cx="163.655" cy="672.8149999999999" r="3.635" fill="#9f9c98"/><circle cx="200.02499999999998" cy="672.8149999999999" r="3.635" fill="#a6a29e"/><circle cx="236.39499999999998" cy="672.8149999999999" r="3.635" fill="#f4f4f3"/><circle cx="272.765" cy="672.8149999999999" r="3.635" fill="#a6a0a1"/><circle cx="309.125" cy="672.8149999999999" r="3.635" fill="#7f7678"/><circle cx="345.495" cy="672.8149999999999" r="3.635" fill="#e1e0df"/><circle cx="381.865" cy="672.8149999999999" r="3.635" fill="#e2e1df"/><circle cx="418.235" cy="672.8149999999999" r="3.635" fill="#605558"/><circle cx="454.605" cy="672.8149999999999" r="3.635" fill="#f0efee"/><circle cx="490.97499999999997" cy="672.8149999999999" r="3.635" fill="#d6d5d3"/><circle cx="527.345" cy="672.8149999999999" r="3.635" fill="#c0bbbc"/><circle cx="563.705" cy="672.8149999999999" r="3.635" fill="#fbfbfb"/><circle cx="600.075" cy="672.8149999999999" r="3.635" fill="#90888a"/><circle cx="636.4449999999999" cy="672.8149999999999" r="3.635" fill="#524649"/><circle cx="672.8149999999999" cy="672.8149999999999" r="3.635" fill="#55494c"/><circle cx="709.185" cy="672.8149999999999" r="3.635" fill="#bab7b4"/><circle cx="745.555" cy="672.8149999999999" r="3.635" fill="#ada7a9"/><circle cx="781.915" cy="672.8149999999999" r="3.635" fill="#f2f1f2"/><circle cx="818.285" cy="672.8149999999999" r="3.635" fill="#b7b4b1"/><circle cx="854.655" cy="672.8149999999999" r="3.635" fill="#e6e4e4"/><circle cx="891.025" cy="672.8149999999999" r="3.635" fill="#a6a29f"/><circle cx="927.395" cy="672.8149999999999" r="3.635" fill="#d0cecc"/><circle cx="963.765" cy="672.8149999999999" r="3.635" fill="#9c9597"/><circle cx="1000.125" cy="672.8149999999999" r="3.635" fill="#8f8789"/><circle cx="1036.495" cy="672.8149999999999" r="3.635" fill="#8d8984"/><circle cx="1072.865" cy="672.8149999999999" r="3.635" fill="#d0cecc"/><circle cx="1109.235" cy="672.8149999999999" r="3.635" fill="#928d89"/><circle cx="1145.605" cy="672.8149999999999" r="3.635" fill="#e5e4e3"/><circle cx="1181.975" cy="672.8149999999999" r="3.635" fill="#4f4245"/><circle cx="1218.345" cy="672.8149999999999" r="3.635" fill="#aaa6a3"/><circle cx="1254.705" cy="672.8149999999999" r="3.635" fill="#aaa4a6"/><circle cx="1291.075" cy="672.8149999999999" r="3.635" fill="#b2afac"/><circle cx="1327.445" cy="672.8149999999999" r="3.635" fill="#edecec"/><circle cx="1363.815" cy="672.8149999999999" r="3.635" fill="#c8c6c3"/><circle cx="1400.185" cy="672.8149999999999" r="3.635" fill="#4a3d40"/></g></svg>